<svg viewBox="0 0 1000 685" xmlns="http://www.w3.org/2000/svg" style="font-family: sans-serif;">
<rect x="0" y="0" width="1000" height="685" fill="#eee"></rect>
<text font-size="16" x="50%" y="14" dominant-baseline="middle" text-anchor="middle">smallData - encode (ops/sec)</text>

<g transform="translate(150 25)">
    <text x="-5" y="9" font-size="10" alignment-baseline="middle" text-anchor="end" font-weight="normal">altjson</text>
    <rect x="0" y="0" width="57.66890111646385" height="16" fill="#000"></rect>
    <text x="62.66890111646385" y="9" font-size="10" fill="#000" alignment-baseline="middle" text-anchor="start">74,729</text>
</g>

<g transform="translate(150 45)">
    <text x="-5" y="9" font-size="10" alignment-baseline="middle" text-anchor="end" font-weight="normal">bson</text>
    <rect x="0" y="0" width="149.47735336423204" height="16" fill="#000"></rect>
    <text x="144.47735336423204" y="9" font-size="10" fill="#fff" alignment-baseline="middle" text-anchor="end">193,697</text>
</g>

<g transform="translate(150 65)">
    <text x="-5" y="9" font-size="10" alignment-baseline="middle" text-anchor="end" font-weight="normal">fast-json-stable-stringify</text>
    <rect x="0" y="0" width="280.2871115778899" height="16" fill="#000"></rect>
    <text x="275.2871115778899" y="9" font-size="10" fill="#fff" alignment-baseline="middle" text-anchor="end">363,204</text>
</g>

<g transform="translate(150 85)">
    <text x="-5" y="9" font-size="10" alignment-baseline="middle" text-anchor="end" font-weight="normal">fast-safe-stringify</text>
    <rect x="0" y="0" width="607.9948537637846" height="16" fill="#000"></rect>
    <text x="602.9948537637846" y="9" font-size="10" fill="#fff" alignment-baseline="middle" text-anchor="end">787,857</text>
</g>

<g transform="translate(150 105)">
    <text x="-5" y="9" font-size="10" alignment-baseline="middle" text-anchor="end" font-weight="normal">flatted</text>
    <rect x="0" y="0" width="206.83525651270577" height="16" fill="#000"></rect>
    <text x="201.83525651270577" y="9" font-size="10" fill="#fff" alignment-baseline="middle" text-anchor="end">268,023</text>
</g>

<g transform="translate(150 125)">
    <text x="-5" y="9" font-size="10" alignment-baseline="middle" text-anchor="end" font-weight="normal">gson</text>
    <rect x="0" y="0" width="109.78382611475148" height="16" fill="#000"></rect>
    <text x="104.78382611475148" y="9" font-size="10" fill="#fff" alignment-baseline="middle" text-anchor="end">142,261</text>
</g>

<g transform="translate(150 145)">
    <text x="-5" y="9" font-size="10" alignment-baseline="middle" text-anchor="end" font-weight="normal">ison</text>
    <rect x="0" y="0" width="183.2109865522044" height="16" fill="#000"></rect>
    <text x="178.2109865522044" y="9" font-size="10" fill="#fff" alignment-baseline="middle" text-anchor="end">237,410</text>
</g>

<g transform="translate(150 165)">
    <text x="-5" y="9" font-size="10" alignment-baseline="middle" text-anchor="end" font-weight="bold">JSON (native)</text>
    <rect x="0" y="0" width="845" height="16" fill="#000"></rect>
    <text x="840" y="9" font-size="10" fill="#fff" alignment-baseline="middle" text-anchor="end">1,094,975</text>
</g>

<g transform="translate(150 185)">
    <text x="-5" y="9" font-size="10" alignment-baseline="middle" text-anchor="end" font-weight="bold">json-complete</text>
    <rect x="0" y="0" width="28.49837210895226" height="16" fill="#000"></rect>
    <text x="33.49837210895226" y="9" font-size="10" fill="#000" alignment-baseline="middle" text-anchor="start">36,929</text>
</g>

<g transform="translate(150 205)">
    <text x="-5" y="9" font-size="10" alignment-baseline="middle" text-anchor="end" font-weight="normal">json-cycle</text>
    <rect x="0" y="0" width="227.56253795748762" height="16" fill="#000"></rect>
    <text x="222.56253795748762" y="9" font-size="10" fill="#fff" alignment-baseline="middle" text-anchor="end">294,882</text>
</g>

<g transform="translate(150 225)">
    <text x="-5" y="9" font-size="10" alignment-baseline="middle" text-anchor="end" font-weight="normal">json-helpers</text>
    <rect x="0" y="0" width="172.122326993767" height="16" fill="#000"></rect>
    <text x="167.122326993767" y="9" font-size="10" fill="#fff" alignment-baseline="middle" text-anchor="end">223,041</text>
</g>

<g transform="translate(150 245)">
    <text x="-5" y="9" font-size="10" alignment-baseline="middle" text-anchor="end" font-weight="normal">json-literal</text>
    <rect x="0" y="0" width="136.30199776250598" height="16" fill="#000"></rect>
    <text x="131.30199776250598" y="9" font-size="10" fill="#fff" alignment-baseline="middle" text-anchor="end">176,624</text>
</g>

<g transform="translate(150 265)">
    <text x="-5" y="9" font-size="10" alignment-baseline="middle" text-anchor="end" font-weight="normal">json-stable-stringify</text>
    <rect x="0" y="0" width="196.57000844768143" height="16" fill="#000"></rect>
    <text x="191.57000844768143" y="9" font-size="10" fill="#fff" alignment-baseline="middle" text-anchor="end">254,721</text>
</g>

<g transform="translate(150 285)">
    <text x="-5" y="9" font-size="10" alignment-baseline="middle" text-anchor="end" font-weight="normal">json-stringify-date</text>
    <rect x="0" y="0" width="229.60910523071306" height="16" fill="#000"></rect>
    <text x="224.60910523071306" y="9" font-size="10" fill="#fff" alignment-baseline="middle" text-anchor="end">297,534</text>
</g>

<g transform="translate(150 305)">
    <text x="-5" y="9" font-size="10" alignment-baseline="middle" text-anchor="end" font-weight="normal">json-stringify-safe</text>
    <rect x="0" y="0" width="234.17143770405715" height="16" fill="#000"></rect>
    <text x="229.17143770405715" y="9" font-size="10" fill="#fff" alignment-baseline="middle" text-anchor="end">303,446</text>
</g>

<g transform="translate(150 325)">
    <text x="-5" y="9" font-size="10" alignment-baseline="middle" text-anchor="end" font-weight="normal">json3</text>
    <rect x="0" y="0" width="257.2346765907898" height="16" fill="#000"></rect>
    <text x="252.23467659078977" y="9" font-size="10" fill="#fff" alignment-baseline="middle" text-anchor="end">333,332</text>
</g>

<g transform="translate(150 345)">
    <text x="-5" y="9" font-size="10" alignment-baseline="middle" text-anchor="end" font-weight="normal">json5</text>
    <rect x="0" y="0" width="195.85000570789288" height="16" fill="#000"></rect>
    <text x="190.85000570789288" y="9" font-size="10" fill="#fff" alignment-baseline="middle" text-anchor="end">253,788</text>
</g>

<g transform="translate(150 365)">
    <text x="-5" y="9" font-size="10" alignment-baseline="middle" text-anchor="end" font-weight="normal">json7</text>
    <rect x="0" y="0" width="109.07308386036212" height="16" fill="#000"></rect>
    <text x="104.07308386036212" y="9" font-size="10" fill="#fff" alignment-baseline="middle" text-anchor="end">141,340</text>
</g>

<g transform="translate(150 385)">
    <text x="-5" y="9" font-size="10" alignment-baseline="middle" text-anchor="end" font-weight="normal">jsonify</text>
    <rect x="0" y="0" width="319.79157058380326" height="16" fill="#000"></rect>
    <text x="314.79157058380326" y="9" font-size="10" fill="#fff" alignment-baseline="middle" text-anchor="end">414,395</text>
</g>

<g transform="translate(150 405)">
    <text x="-5" y="9" font-size="10" alignment-baseline="middle" text-anchor="end" font-weight="normal">kson</text>
    <rect x="0" y="0" width="600.3657572090686" height="16" fill="#000"></rect>
    <text x="595.3657572090686" y="9" font-size="10" fill="#fff" alignment-baseline="middle" text-anchor="end">777,971</text>
</g>

<g transform="translate(150 425)">
    <text x="-5" y="9" font-size="10" alignment-baseline="middle" text-anchor="end" font-weight="normal">MessagePack</text>
    <rect x="0" y="0" width="308.64503299162084" height="16" fill="#000"></rect>
    <text x="303.64503299162084" y="9" font-size="10" fill="#fff" alignment-baseline="middle" text-anchor="end">399,951</text>
</g>

<g transform="translate(150 445)">
    <text x="-5" y="9" font-size="10" alignment-baseline="middle" text-anchor="end" font-weight="normal">pson</text>
    <rect x="0" y="0" width="14.02654855133679" height="16" fill="#000"></rect>
    <text x="19.026548551336788" y="9" font-size="10" fill="#000" alignment-baseline="middle" text-anchor="start">18,176</text>
</g>

<g transform="translate(150 465)">
    <text x="-5" y="9" font-size="10" alignment-baseline="middle" text-anchor="end" font-weight="normal">qjson</text>
    <rect x="0" y="0" width="427.70092011233135" height="16" fill="#000"></rect>
    <text x="422.70092011233135" y="9" font-size="10" fill="#fff" alignment-baseline="middle" text-anchor="end">554,227</text>
</g>

<g transform="translate(150 485)">
    <text x="-5" y="9" font-size="10" alignment-baseline="middle" text-anchor="end" font-weight="normal">resurrect-js</text>
    <rect x="0" y="0" width="144.11861914655586" height="16" fill="#000"></rect>
    <text x="139.11861914655586" y="9" font-size="10" fill="#fff" alignment-baseline="middle" text-anchor="end">186,753</text>
</g>

<g transform="translate(150 505)">
    <text x="-5" y="9" font-size="10" alignment-baseline="middle" text-anchor="end" font-weight="normal">rrjson</text>
    <rect x="0" y="0" width="215.49689718943353" height="16" fill="#000"></rect>
    <text x="210.49689718943353" y="9" font-size="10" fill="#fff" alignment-baseline="middle" text-anchor="end">279,247</text>
</g>

<g transform="translate(150 525)">
    <text x="-5" y="9" font-size="10" alignment-baseline="middle" text-anchor="end" font-weight="normal">rson</text>
    <rect x="0" y="0" width="682.3959085823877" height="16" fill="#000"></rect>
    <text x="677.3959085823877" y="9" font-size="10" fill="#fff" alignment-baseline="middle" text-anchor="end">884,268</text>
</g>

<g transform="translate(150 545)">
    <text x="-5" y="9" font-size="10" alignment-baseline="middle" text-anchor="end" font-weight="normal">serialize-javascript</text>
    <rect x="0" y="0" width="318.47580994999885" height="16" fill="#000"></rect>
    <text x="313.47580994999885" y="9" font-size="10" fill="#fff" alignment-baseline="middle" text-anchor="end">412,690</text>
</g>

<g transform="translate(150 565)">
    <text x="-5" y="9" font-size="10" alignment-baseline="middle" text-anchor="end" font-weight="normal">serialize-to-js</text>
    <rect x="0" y="0" width="308.791657343775" height="16" fill="#000"></rect>
    <text x="303.791657343775" y="9" font-size="10" fill="#fff" alignment-baseline="middle" text-anchor="end">400,141</text>
</g>

<g transform="translate(150 585)">
    <text x="-5" y="9" font-size="10" alignment-baseline="middle" text-anchor="end" font-weight="normal">snapshot</text>
    <rect x="0" y="0" width="80.65419758441973" height="16" fill="#000"></rect>
    <text x="85.65419758441973" y="9" font-size="10" fill="#000" alignment-baseline="middle" text-anchor="start">104,514</text>
</g>

<g transform="translate(150 605)">
    <text x="-5" y="9" font-size="10" alignment-baseline="middle" text-anchor="end" font-weight="normal">telejson</text>
    <rect x="0" y="0" width="180.2468595173406" height="16" fill="#000"></rect>
    <text x="175.2468595173406" y="9" font-size="10" fill="#fff" alignment-baseline="middle" text-anchor="end">233,569</text>
</g>

<g transform="translate(150 625)">
    <text x="-5" y="9" font-size="10" alignment-baseline="middle" text-anchor="end" font-weight="normal">xson</text>
    <rect x="0" y="0" width="537.084230233567" height="16" fill="#000"></rect>
    <text x="532.084230233567" y="9" font-size="10" fill="#fff" alignment-baseline="middle" text-anchor="end">695,969</text>
</g>

<g transform="translate(150 645)">
    <text x="-5" y="9" font-size="10" alignment-baseline="middle" text-anchor="end" font-weight="normal">zson</text>
    <rect x="0" y="0" width="583.1435694878878" height="16" fill="#000"></rect>
    <text x="578.1435694878878" y="9" font-size="10" fill="#fff" alignment-baseline="middle" text-anchor="end">755,654</text>
</g>

<text font-size="12" x="50%" y="673" dominant-baseline="middle" text-anchor="middle">Larger is better</text>

</svg>